HIERARCHY
ROOT Hips
{
 OFFSET 0.000000 0.000000 0.000000
 CHANNELS 6 Xposition Yposition Zposition Yrotation Xrotation Zrotation
 JOINT Chest
 {
  OFFSET 0.000000 10.247883 -1.138654
  CHANNELS 3 Yrotation Xrotation Zrotation
  JOINT Chest2
  {
   OFFSET 0.000000 11.376386 0.000000
   CHANNELS 3 Yrotation Xrotation Zrotation
   JOINT Chest3
   {
    OFFSET 0.000000 10.386903 -0.002195
    CHANNELS 3 Yrotation Xrotation Zrotation
    JOINT Chest4
    {
     OFFSET 0.000000 10.375307 -0.002198
     CHANNELS 3 Yrotation Xrotation Zrotation
     JOINT Neck
     {
      OFFSET 0.000000 14.522000 0.000000
      CHANNELS 3 Yrotation Xrotation Zrotation
      JOINT Head
      {
       OFFSET 0.000000 9.660085 0.004721
       CHANNELS 3 Yrotation Xrotation Zrotation
       End Site
       {
        OFFSET 0.000000 17.933517 0.000635
       }
      }
     }
     JOINT RightCollar
     {
      OFFSET -3.163951 8.141633 0.000000
      CHANNELS 3 Yrotation Xrotation Zrotation
      JOINT RightShoulder
      {
       OFFSET -14.814685 0.000000 0.000000
       CHANNELS 3 Yrotation Xrotation Zrotation
       JOINT RightElbow
       {
        OFFSET -31.670241 0.000000 0.000000
        CHANNELS 3 Yrotation Xrotation Zrotation
        JOINT RightWrist
        {
         OFFSET -25.897132 0.000000 0.000000
         CHANNELS 3 Yrotation Xrotation Zrotation
         End Site
         {
          OFFSET -19.358197 0.000000 0.000000
         }
        }
       }
      }
     }
     JOINT LeftCollar
     {
      OFFSET 3.163951 8.141633 0.000000
      CHANNELS 3 Yrotation Xrotation Zrotation
      JOINT LeftShoulder
      {
       OFFSET 14.814685 0.000000 0.000000
       CHANNELS 3 Yrotation Xrotation Zrotation
       JOINT LeftElbow
       {
        OFFSET 31.670241 0.000000 0.000000
        CHANNELS 3 Yrotation Xrotation Zrotation
        JOINT LeftWrist
        {
         OFFSET 25.897132 0.000000 0.000000
         CHANNELS 3 Yrotation Xrotation Zrotation
         End Site
         {
          OFFSET 19.358197 0.000000 0.000000
         }
        }
       }
      }
     }
    }
   }
  }
 }
 JOINT RightHip
 {
  OFFSET -8.434534 0.006524 -0.000725
  CHANNELS 3 Yrotation Xrotation Zrotation
  JOINT RightKnee
  {
   OFFSET 0.000000 -43.604351 -0.000519
   CHANNELS 3 Yrotation Xrotation Zrotation
   JOINT RightAnkle
   {
    OFFSET 0.000000 -42.601680 -0.000874
    CHANNELS 3 Yrotation Xrotation Zrotation
    JOINT RightToe
    {
     OFFSET 0.000000 -7.938317 18.072015
     CHANNELS 3 Yrotation Xrotation Zrotation
     End Site
     {
      OFFSET 0.000000 -1.689196 7.421192
     }
    }
   }
  }
 }
 JOINT LeftHip
 {
  OFFSET 8.434534 0.004223 -0.000469
  CHANNELS 3 Yrotation Xrotation Zrotation
  JOINT LeftKnee
  {
   OFFSET 0.000000 -43.604351 -0.000519
   CHANNELS 3 Yrotation Xrotation Zrotation
   JOINT LeftAnkle
   {
    OFFSET 0.000000 -42.601680 -0.000874
    CHANNELS 3 Yrotation Xrotation Zrotation
    JOINT LeftToe
    {
     OFFSET 0.000000 -7.938317 18.072015
     CHANNELS 3 Yrotation Xrotation Zrotation
     End Site
     {
      OFFSET 0.000000 -1.689196 7.421192
     }
    }
   }
  }
 }
}
MOTION
Frames: 5
Frame Time: 0.016667
213.289773 96.726820 -366.376236 12.338328 7.688633 -3.054533 -3.200567 -1.803947 0.182207 -1.428586 -6.629329 0.068984 -1.419164 -0.810690 -0.076035 -1.070474 5.228838 -0.059246 -0.114756 14.279447 1.415702 -0.765009 -9.494503 2.707687 -0.681161 3.639704 8.103183 -32.493644 7.810596 71.572343 -10.451846 -11.907734 -13.254412 -7.879941 1.783477 2.438926 0.802721 1.820203 -9.590916 -22.999333 -33.157652 -51.564387 -21.208477 -15.554813 -11.327686 1.973736 -0.093559 6.931637 2.670689 -32.019936 -2.791909 -5.354698 46.073067 1.290311 -8.805717 -9.414879 10.185879 -0.000000 0.000000 0.000000 3.433656 -7.602685 1.368650 0.866879 6.513974 -0.241118 15.558385 -5.529358 -2.364755 0.000000 -0.000000 0.000000
213.257264 96.641815 -366.069351 11.710144 7.669625 -2.829807 -3.081734 -1.830453 0.119588 -1.373198 -6.640652 0.041261 -1.364112 -0.821878 -0.098137 -1.030903 5.220487 -0.075838 -0.206877 14.145977 1.387928 -0.930839 -9.740628 2.693927 -0.749707 3.548936 8.191541 -32.189067 7.233876 71.692899 -10.919191 -12.117380 -13.307565 -8.023473 1.610004 1.731048 0.761852 1.774062 -9.609732 -22.186972 -32.904013 -52.106758 -21.528035 -15.534395 -11.733187 1.901331 -0.148424 7.017767 1.896816 -31.241724 -2.699414 -5.453749 44.127681 1.108620 -8.922216 -9.233033 10.075972 -0.000000 -0.000000 -0.000000 3.691898 -7.371955 1.181717 1.014225 6.603903 -0.259634 15.816881 -5.843414 -2.502786 0.000000 0.000000 -0.000000
213.203663 96.550463 -365.736426 11.102690 7.652064 -2.579233 -2.963989 -1.881464 0.050544 -1.318008 -6.662859 0.010512 -1.309232 -0.843956 -0.123287 -0.991703 5.203970 -0.094745 -0.293316 14.042140 1.349709 -1.081299 -9.932089 2.657901 -0.831368 3.499938 8.295512 -31.783342 6.454367 71.910195 -11.209600 -12.335598 -13.182574 -8.036336 1.466594 1.271875 0.707532 1.772236 -9.637786 -21.217383 -32.583337 -52.904352 -21.531374 -15.454448 -11.968734 1.786884 -0.186328 7.124452 1.098317 -30.275362 -2.631851 -5.431718 41.875886 0.992432 -8.982512 -8.989418 9.924433 0.000000 -0.000000 0.000000 3.910901 -7.105358 0.996185 1.203728 6.656661 -0.286671 16.051257 -6.154513 -2.667248 -0.000000 0.000000 -0.000000
213.136844 96.458088 -365.376914 10.524004 7.640175 -2.301421 -2.858672 -1.965559 -0.024789 -1.268066 -6.699758 -0.023282 -1.259534 -0.880741 -0.152012 -0.956674 5.176426 -0.116375 -0.367508 13.974769 1.298541 -1.202738 -10.056434 2.592034 -0.930977 3.533886 8.405703 -31.353012 5.410618 72.212345 -11.236396 -12.675599 -12.846472 -7.861569 1.345099 1.256932 0.641479 1.864046 -9.675791 -20.132840 -32.216111 -53.947886 -21.198455 -15.328381 -11.977669 1.578463 -0.168030 7.285976 0.234351 -29.117030 -2.605504 -5.211403 39.300583 0.995916 -8.905994 -8.651990 9.708127 -0.000000 -0.000000 -0.000000 4.045738 -6.788237 0.811681 1.492759 6.637516 -0.321397 16.238848 -6.444577 -2.856133 -0.000000 0.000000 -0.000000
213.048933 96.359367 -364.991362 9.966047 7.630219 -1.997843 -2.753776 -2.074207 -0.105926 -1.218094 -6.747567 -0.059785 -1.209792 -0.928440 -0.183445 -0.921832 5.140697 -0.140054 -0.436298 13.936851 1.235912 -1.308783 -10.126497 2.501873 -1.044339 3.609722 8.529831 -30.824166 4.164785 72.607000 -11.086109 -13.028560 -12.337925 -7.563116 1.260984 1.490828 0.561445 1.999816 -9.724640 -18.903724 -31.769285 -55.236730 -20.551738 -15.156487 -11.805610 1.327010 -0.136827 7.466247 -0.652692 -27.774070 -2.620129 -4.893605 36.419453 1.053782 -8.772703 -8.251839 9.452889 0.000000 -0.000000 0.000000 4.140057 -6.436281 0.627259 1.824016 6.581820 -0.365420 16.402453 -6.731915 -3.070871 -0.000000 0.000000 -0.000000
